<?xml version="1.0" encoding="UTF-8"?>
<svg id="Layer_2" xmlns="http://www.w3.org/2000/svg" xmlns:xlink="http://www.w3.org/1999/xlink" version="1.1" viewBox="0 0 256 512">
  <!-- Generator: Adobe Illustrator 29.1.0, SVG Export Plug-In . SVG Version: 2.1.0 Build 142)  -->
  <defs>
    <style>
      .st0 {
        fill: #ffebb8;
      }

      .st1 {
        fill: #1a2c38;
      }

      .st2 {
        fill: #304553;
      }

      .st3 {
        fill: url(#linear-gradient);
      }

      .st4 {
        fill: #557086;
      }

      .st5 {
        fill: #fff;
      }

      .st6 {
        fill: #0e212e;
      }

      .st7 {
        fill: #8ea3b2;
      }

      .st8 {
        fill: #ff7f00;
      }

      .st9 {
        fill: #ffc200;
      }
    </style>
    <linearGradient id="linear-gradient" x1="128.1" y1="408.4" x2="128.1" y2="733.6" gradientTransform="translate(0 778) scale(1 -1)" gradientUnits="userSpaceOnUse">
      <stop offset="0" stop-color="#0e212e"/>
      <stop offset="1" stop-color="#0e212e" stop-opacity="0"/>
    </linearGradient>
  </defs>
  <g id="Symbols_Cases">
    <rect class="st9" x="3.3" y="258.5" width="249.5" height="249.5" rx="18.7" ry="18.7"/>
    <rect class="st2" x="3.3" y="124.5" width="249.5" height="134.1" rx="18.7" ry="18.7"/>
    <rect class="st6" x="23" y="278.2" width="210.1" height="99.9" rx="8.2" ry="8.2"/>
    <rect class="st6" x="23" y="146.5" width="210.1" height="90" rx="8.2" ry="8.2"/>
    <rect class="st7" x="56.9" y="252.3" width="34.5" height="12.5" rx="2.6" ry="2.6"/>
    <rect class="st7" x="169.1" y="252.3" width="34.5" height="12.5" rx="2.6" ry="2.6"/>
    <path class="st6" d="M91.8,373.6h72.3v25.2c0,6.8-5.5,12.3-12.3,12.3h-47.8c-6.8,0-12.3-5.5-12.3-12.3v-25.2h.1Z"/>
    <rect class="st3" x="23" y="44.4" width="210.1" height="325.2"/>
    <g id="Multi_Gold">
      <rect class="st2" x="28.6" y="431.7" width="198.9" height="60.9" rx="30.4" ry="30.4"/>
    </g>
    <g>
      <path class="st5" d="M95.3,474.5v-5.4c11.6-8.4,13.7-10.2,13.7-12.9s-1.7-2.8-3.7-2.8c-3,0-5.2,1.1-7.1,2.9l-3.8-4.6c2.8-3.1,7.1-4.4,10.8-4.4,6.3,0,10.8,3.5,10.8,8.9s-2.9,7.6-9.6,12.2h9.8v6h-20.9Z"/>
      <path class="st5" d="M118.5,470.8l3.5-4.7c1.9,1.9,5,2.8,7.3,2.8s4.5-1.1,4.5-2.6-1.1-2.2-4.8-2.2-3.2,0-3.6,0v-6.1h3.6c2.8,0,4.3-.7,4.3-2.1s-1.9-2.4-4.5-2.4-4.8.9-6.6,2.6l-3.3-4.3c2.2-2.5,5.8-4.3,10.7-4.3s10.6,2.9,10.6,7.3-2.7,5.5-5.8,6c2.8.3,6.3,2.5,6.3,6.3s-4.4,7.9-11.1,7.9-9-1.8-11.1-4.2h0Z"/>
      <path class="st5" d="M155.9,474.5l-3.7-5.8-3.8,5.8h-6.7l6.6-9.9-6.2-9.4h6.8l3.3,5.2,3.3-5.2h6.8l-6.2,9.4,6.6,9.9h-6.8Z"/>
    </g>
  </g>
  <g id="token_gold_1">
    <g>
      <polygon class="st4" points="181.7 327.1 214.9 293.9 214.9 126.8 181.7 93.6 72.9 93.6 39.7 126.8 39.7 293.9 72.9 327.1 181.7 327.1"/>
      <polygon class="st4" points="166.7 301.1 88.9 301.1 73 327.1 73 327.1 181.6 327.1 181.6 327 166.7 301.1"/>
      <g>
        <polygon class="st0" points="65.7 277.8 89.1 301.1 165.5 301.1 188.9 277.8 188.9 249.7 65.7 249.7 65.7 277.8"/>
        <polygon class="st8" points="188.9 143 165.5 119.6 89.1 119.6 65.7 143 65.7 171 188.9 171 188.9 143"/>
        <rect class="st9" x="65.7" y="171" width="123.2" height="78.8"/>
      </g>
      <path class="st1" d="M94.2,280.4l-7.8-7.8c-1.5-1.5-2.4-3.6-2.4-5.8v-112.8c0-2.2.9-4.3,2.4-5.8l7.8-7.8c1.5-1.5,3.6-2.4,5.8-2.4h54.5c2.2,0,4.3.9,5.8,2.4l7.8,7.8c1.5,1.5,2.4,3.6,2.4,5.8v112.8c0,2.2-.9,4.3-2.4,5.8l-7.8,7.8c-1.5,1.5-3.6,2.4-5.8,2.4h-54.5c-2.2,0-4.3-.9-5.8-2.4Z"/>
      <polygon class="st7" points="72.9 327.1 89.1 301.1 65.7 277.8 39.7 293.9 72.9 327.1"/>
      <polygon class="st7" points="39.7 126.8 65.7 143 89.1 119.6 72.9 93.6 39.7 126.8"/>
      <polygon class="st7" points="181.7 327.1 165.5 301.1 188.9 277.8 214.9 293.9 181.7 327.1"/>
      <polygon class="st5" points="214.9 126.8 188.9 143 165.5 119.6 181.7 93.6 214.9 126.8"/>
    </g>
    <rect class="st8" x="116.3" y="236.5" width="22" height="22" rx="3.8" ry="3.8"/>
  </g>
</svg>