<?xml version="1.0" encoding="UTF-8"?><svg id="After_Effects" xmlns="http://www.w3.org/2000/svg" viewBox="0 0 100 150"><defs><style>.cls-1{fill:#962eff;}.cls-2{fill:#fff;}</style></defs><rect class="cls-2" x="47" y="11.21" width="5.56" height="110.6" rx="2.78" ry="2.78"/><path class="cls-2" d="M71.03,124.35v-18.52c0-1.78-.95-3.43-2.5-4.32l-18.53-10.7-18.53,10.7c-1.54.89-2.5,2.54-2.5,4.32v18.52c0,1.78.95,3.43,2.5,4.32l16.04,9.26c1.54.89,3.45.89,4.99,0l16.04-9.26c1.54-.89,2.5-2.54,2.5-4.32Z"/><polygon class="cls-1" points="39.42 121.2 39.42 108.98 50 102.88 60.58 108.98 60.58 121.2 50 127.3 39.42 121.2"/></svg>